<svg xmlns="http://www.w3.org/2000/svg" width="1134" height="1252" viewBox="0 0 1134 1252">
  <g id="Group_5" data-name="Group 5" transform="translate(-190 86)">
    <g id="Group_2" data-name="Group 2" transform="translate(91 -512)">
      <g id="Ellipse_2" data-name="Ellipse 2" transform="translate(160 426)" fill="rgba(46,68,103,0)" stroke="#4778c8" stroke-width="5">
        <ellipse cx="228.5" cy="224" rx="228.5" ry="224" stroke="none"/>
        <ellipse cx="228.5" cy="224" rx="226" ry="221.5" fill="none"/>
      </g>
      <ellipse id="Ellipse_1" data-name="Ellipse 1" cx="197" cy="193.5" rx="197" ry="193.5" transform="translate(192 457)" fill="#2e4467"/>
      <text id="Help_young_Africans_across_the_continent" data-name="Help young Africans
across the continent" transform="translate(234 613)" fill="#fff" font-size="26" font-family="Poppins-SemiBold, Poppins" font-weight="600"><tspan x="-133.094" y="27">Help young Africans</tspan><tspan x="-135.824" y="66">across the continent</tspan></text>
    </g>
    <g id="Group_4" data-name="Group 4" transform="translate(30 292)">
      <g id="Ellipse_2-2" data-name="Ellipse 2" transform="translate(160 426)" fill="rgba(46,68,103,0)" stroke="#4778c8" stroke-width="5">
        <ellipse cx="228.5" cy="224" rx="228.5" ry="224" stroke="none"/>
        <ellipse cx="228.5" cy="224" rx="226" ry="221.5" fill="none"/>
      </g>
      <ellipse id="Ellipse_1-2" data-name="Ellipse 1" cx="197" cy="193.5" rx="197" ry="193.5" transform="translate(192 457)" fill="#2e4467"/>
      <text id="Promote_Africa_s_cultural_heritage" data-name="Promote Africa’s cultural heritage" transform="translate(234 613)" fill="#fff" font-size="26" font-family="Poppins-SemiBold, Poppins" font-weight="600"><tspan x="-109.486" y="27">Promote Africa’s </tspan><tspan x="-110.617" y="66">cultural heritage</tspan></text>
    </g>
    <g id="Group_3" data-name="Group 3" transform="translate(707 -64)">
      <g id="Path_2" data-name="Path 2" transform="translate(160 426)" fill="rgba(46,68,103,0)">
        <path d="M 228.5 445.5 C 213.1613006591797 445.5 197.8330535888672 443.9852905273438 182.9409942626953 440.9979553222656 C 168.4291229248047 438.0868835449219 154.1549987792969 433.7432250976562 140.5150604248047 428.0875854492188 C 127.1229400634766 422.5347595214844 114.2062911987305 415.6619262695312 102.1238861083984 407.6600036621094 C 90.15653228759766 399.7342224121094 78.90311431884766 390.6321716308594 68.67617797851562 380.6066589355469 C 58.45011901855469 370.5820007324219 49.16635131835938 359.5515747070312 41.08270645141602 347.8218688964844 C 32.92264556884766 335.9812927246094 25.91423606872559 323.3235778808594 20.25211715698242 310.2005310058594 C 14.48594093322754 296.836181640625 10.05741214752197 282.850830078125 7.089588165283203 268.6329345703125 C 4.044176578521729 254.0435333251953 2.5 239.0268249511719 2.5 224 C 2.5 208.9731750488281 4.044176578521729 193.9564666748047 7.089588165283203 179.3670654296875 C 10.05741214752197 165.149169921875 14.48594093322754 151.163818359375 20.25211715698242 137.7994689941406 C 25.91423606872559 124.6764144897461 32.92264556884766 112.0187072753906 41.08270645141602 100.1781158447266 C 49.16635131835938 88.44841003417969 58.45011901855469 77.41799926757812 68.67617797851562 67.39335632324219 C 78.90311431884766 57.36782455444336 90.15653228759766 48.26576614379883 102.1238861083984 40.34000015258789 C 114.2062911987305 32.33805847167969 127.1229400634766 25.46523475646973 140.5150604248047 19.91241264343262 C 154.1549987792969 14.25676441192627 168.4291229248047 9.913117408752441 182.9409942626953 7.002058982849121 C 197.8330535888672 4.014705657958984 213.1613006591797 2.5 228.5 2.5 C 243.8386993408203 2.5 259.1669311523438 4.014705657958984 274.0589904785156 7.002058982849121 C 288.5708923339844 9.913117408752441 302.8450012207031 14.25676441192627 316.4849548339844 19.91241264343262 C 329.8770446777344 25.46523475646973 342.793701171875 32.33805847167969 354.8761291503906 40.34000015258789 C 366.8434753417969 48.26576614379883 378.0968933105469 57.36782455444336 388.3238220214844 67.39335632324219 C 398.5498962402344 77.41799926757812 407.8336486816406 88.44841003417969 415.9172973632812 100.1781158447266 C 424.0773620605469 112.0187072753906 431.0857543945312 124.6764144897461 436.7478942871094 137.7994689941406 C 442.5140686035156 151.163818359375 446.9425964355469 165.149169921875 449.910400390625 179.3670654296875 C 452.955810546875 193.9564666748047 454.5 208.9731750488281 454.5 224 C 454.5 239.0268249511719 452.955810546875 254.0435333251953 449.910400390625 268.6329345703125 C 446.9425964355469 282.850830078125 442.5140686035156 296.836181640625 436.7478942871094 310.2005310058594 C 431.0857543945312 323.3235778808594 424.0773620605469 335.9812927246094 415.9172973632812 347.8218688964844 C 407.8336486816406 359.5515747070312 398.5498962402344 370.5820007324219 388.3238220214844 380.6066589355469 C 378.0968933105469 390.6321716308594 366.8434753417969 399.7342224121094 354.8761291503906 407.6600036621094 C 342.793701171875 415.6619262695312 329.8770446777344 422.5347595214844 316.4849548339844 428.0875854492188 C 302.8450012207031 433.7432250976562 288.5708923339844 438.0868835449219 274.0589904785156 440.9979553222656 C 259.1669311523438 443.9852905273438 243.8386993408203 445.5 228.5 445.5 Z" stroke="none"/>
        <path d="M 228.5 5 C 213.3260650634766 5 198.1632385253906 6.498260498046875 183.4326782226562 9.4532470703125 C 169.0799865722656 12.33236694335938 154.9625549316406 16.62832641601562 141.4725646972656 22.22174072265625 C 128.2279968261719 27.71343994140625 115.45361328125 34.51055908203125 103.5043029785156 42.42437744140625 C 91.66912841796875 50.26263427734375 80.54006958007812 59.26406860351562 70.42630004882812 69.17861938476562 C 60.31423950195312 79.09149169921875 51.13424682617188 89.99856567382812 43.1412353515625 101.5967407226562 C 35.07376098632812 113.3030700683594 28.14505004882812 125.8166198730469 22.54757690429688 138.7898864746094 C 16.84780883789062 152.0001831054688 12.47036743164062 165.8241882324219 9.53680419921875 179.8778686523438 C 6.5263671875 194.2996215820312 5 209.1445007324219 5 224 C 5 238.8554992675781 6.5263671875 253.7003784179688 9.53680419921875 268.1221313476562 C 12.47036743164062 282.1758117675781 16.84780883789062 295.9998168945312 22.54757690429688 309.2101440429688 C 28.14505004882812 322.1833801269531 35.07376098632812 334.6969299316406 43.1412353515625 346.4032592773438 C 51.13424682617188 358.0014343261719 60.31423950195312 368.9085083007812 70.42630004882812 378.8213806152344 C 80.54006958007812 388.7359313964844 91.66912841796875 397.7373657226562 103.5043029785156 405.5756225585938 C 115.45361328125 413.4894409179688 128.2279968261719 420.2865600585938 141.4725646972656 425.7782592773438 C 154.9625549316406 431.3716735839844 169.0799865722656 435.6676330566406 183.4326782226562 438.5467529296875 C 198.1632385253906 441.5017395019531 213.3260650634766 443 228.5 443 C 243.6739349365234 443 258.8367309570312 441.5017395019531 273.5673217773438 438.5467529296875 C 287.9199829101562 435.6676330566406 302.0374450683594 431.3716735839844 315.5274353027344 425.7782592773438 C 328.7720031738281 420.2865600585938 341.54638671875 413.4894409179688 353.4956970214844 405.5756225585938 C 365.3308715820312 397.7373657226562 376.4599304199219 388.7359313964844 386.5736694335938 378.8213806152344 C 396.6857604980469 368.9085083007812 405.8657531738281 358.0014343261719 413.8587646484375 346.4032592773438 C 421.9262390136719 334.6969299316406 428.8549499511719 322.1833801269531 434.4524536132812 309.2101440429688 C 440.1521911621094 295.9998168945312 444.5296325683594 282.1758117675781 447.4631958007812 268.1221313476562 C 450.4736328125 253.7003784179688 452 238.8554992675781 452 224 C 452 209.1445007324219 450.4736328125 194.2996215820312 447.4631958007812 179.8778686523438 C 444.5296325683594 165.8241882324219 440.1521911621094 152.0001831054688 434.4524536132812 138.7898864746094 C 428.8549499511719 125.8166198730469 421.9262390136719 113.3030700683594 413.8587646484375 101.5967407226562 C 405.8657531738281 89.99856567382812 396.6857604980469 79.09149169921875 386.5736694335938 69.17861938476562 C 376.4599304199219 59.26406860351562 365.3308715820312 50.26263427734375 353.4956970214844 42.42437744140625 C 341.54638671875 34.51055908203125 328.7720031738281 27.71343994140625 315.5274353027344 22.22174072265625 C 302.0374450683594 16.62832641601562 287.9199829101562 12.33236694335938 273.5673217773438 9.4532470703125 C 258.8367309570312 6.498260498046875 243.6739349365234 5 228.5 5 M 228.5 0 C 354.6970520019531 0 457 100.2882385253906 457 224 C 457 347.7117309570312 354.6970520019531 448 228.5 448 C 102.3029479980469 448 0 347.7117309570312 0 224 C 0 100.2882385253906 102.3029479980469 0 228.5 0 Z" stroke="none" fill="#2e4467"/>
      </g>
      <ellipse id="Ellipse_1-3" data-name="Ellipse 1" cx="197" cy="193.5" rx="197" ry="193.5" transform="translate(192 457)" fill="#4778c8"/>
      <text id="Train_economic_leaders_" data-name="Train economic leaders " transform="translate(234 613)" fill="#fff" font-size="26" font-family="Poppins-SemiBold, Poppins" font-weight="600"><tspan x="-102.96" y="27">Train economic </tspan><tspan x="-49.621" y="66">leaders </tspan></text>
    </g>
    <circle id="Ellipse_3" data-name="Ellipse 3" cx="45.5" cy="45.5" r="45.5" transform="translate(578 521)" fill="#2e4467"/>
    <line id="Line_1" data-name="Line 1" x2="85" y2="178" transform="translate(523.5 357.5)" fill="none" stroke="#2e4467" stroke-width="5"/>
    <line id="Line_2" data-name="Line 2" y1="153" x2="98" transform="translate(517.5 589.5)" fill="none" stroke="#2e4467" stroke-width="5"/>
    <line id="Line_3" data-name="Line 3" x2="211" y2="57" transform="translate(661.5 571.5)" fill="none" stroke="#2e4467" stroke-width="5"/>
  </g>
</svg>
