<svg xmlns="http://www.w3.org/2000/svg" width="311.802" height="108.223" viewBox="0 0 311.802 108.223">
    <g fill="none" fill-rule="evenodd">
        <g>
            <path fill="#FFF" d="M100.223 53.755L100.223 17.925 107.218 17.925 107.218 47.515 123.473 47.515 123.473 53.755zM139.537 54.057c-7.347 0-13.185-4.982-13.185-12.58V17.924h6.995v23.3c0 4.126 2.416 6.592 6.19 6.592 3.774 0 6.24-2.466 6.24-6.593V17.925h6.945v23.551c0 7.6-5.838 12.581-13.185 12.581M172.57 24.165L172.57 53.756 165.575 53.756 165.575 24.165 156.215 24.165 156.215 17.926 181.93 17.926 181.93 24.165zM113.408 98.913c-7.347 0-13.185-4.981-13.185-12.58V62.78h6.995v23.3c0 4.127 2.416 6.593 6.19 6.593 3.774 0 6.24-2.466 6.24-6.593v-23.3h6.945v23.552c0 7.599-5.838 12.58-13.185 12.58M146.965 98.61V82.76c0-3.573-2.265-4.781-4.328-4.781s-4.378 1.208-4.378 4.78v15.853h-6.542V72.39h6.39v2.417c1.712-1.811 4.128-2.718 6.543-2.718 2.617 0 4.73.856 6.19 2.316 2.113 2.113 2.667 4.579 2.667 7.447V98.61h-6.542zM158.404 98.611h6.542V73.147h-6.542v25.464zm-.1-30.698h6.692V62.58h-6.693v5.334zM182.161 98.611L177.028 98.611 167.366 72.392 174.26 72.392 179.594 88.597 184.878 72.392 191.773 72.392zM207.802 80.243c-.705-1.56-2.164-2.717-4.378-2.717-2.215 0-3.674 1.157-4.378 2.717-.453.956-.554 1.66-.604 2.818h9.964c-.051-1.157-.151-1.862-.604-2.818zm-9.36 7.297c0 3.423 2.012 5.838 5.736 5.838 2.869 0 4.278-.856 5.938-2.466l3.976 3.875c-2.667 2.718-5.233 4.126-9.964 4.126-6.19 0-12.128-2.817-12.128-13.436 0-8.555 4.63-13.386 11.424-13.386 7.296 0 11.423 5.234 11.423 12.68v2.769h-16.405zM232.989 79.539c-1.006-1.007-1.862-1.561-3.472-1.561-2.013 0-4.227 1.51-4.227 4.832v15.8h-6.542V72.394h6.39v2.516c1.259-1.51 3.775-2.818 6.593-2.818 2.567 0 4.378.654 6.19 2.466l-4.932 4.982zM247.438 98.913c-4.126 0-7.8-.452-11.172-3.773l4.278-4.28c2.113 2.165 4.982 2.467 6.995 2.467 2.264 0 4.629-.754 4.629-2.717 0-1.308-.654-2.215-2.767-2.416l-4.228-.402c-4.629-.453-7.548-2.517-7.548-7.348 0-5.484 4.781-8.353 10.115-8.353 4.127 0 7.498.755 10.014 3.07l-4.025 4.076c-1.51-1.36-3.775-1.761-6.09-1.761-2.617 0-3.723 1.208-3.723 2.516 0 1.309.754 2.063 2.717 2.265l4.126.402c5.184.503 7.801 3.22 7.801 7.699 0 5.787-4.932 8.555-11.122 8.555M261.992 98.611h6.542V73.147h-6.542v25.464zm-.1-30.698h6.692V62.58h-6.693v5.334zM281.96 98.61c-5.333 0-7.598-3.773-7.598-7.497V78.13h-2.768v-4.983h2.768v-7.75h6.542v7.75h4.63v4.983h-4.63v12.58c0 1.51.704 2.366 2.265 2.366h2.365v5.535h-3.573zM300.58 102.838c-.554 1.46-1.158 2.566-1.963 3.371-1.51 1.51-3.472 2.014-5.636 2.014h-2.567v-5.888h1.51c1.862 0 2.617-.453 3.271-2.365l1.107-3.22-8.957-24.358h6.894l5.435 16.205 5.234-16.205h6.894l-11.222 30.446z"/>
            <path fill="#ED174D" d="M14.736 42.962l51.81 56.003.05-.048 9.954-9.351-6.827-7.286 11.1-10.436-9.286-10.033L60.44 72.247 24.005 32.863c-5.903-6.976-9.715-14.63-2.464-25.1L14.36 0C5.8 8.211.321 27.378 14.736 42.962"/>
            <path fill="#23B900" d="M17.803 91.568l-7.72 7.259c8.192 8.577 27.13 14.014 42.537-.47l4.475-4.203-9.286-10.033-5.208 4.896c-6.9 5.93-14.465 9.76-24.798 2.55"/>
            <path fill="#FF8621" d="M38.687 26.301L10.465 52.828C-5.066 67.423-.82 87.05 7.225 95.782l7.675-7.216c-6.639-11.036-2.289-18.438 4.113-25.013L47.97 36.334l-9.283-10.033z"/>
        </g>
    </g>
</svg>
